<?xml version="1.0" encoding="iso-8859-1"?>
<!-- Uploaded to: SVG Repo, www.svgrepo.com, Generator: SVG Repo Mixer Tools -->
<svg version="1.1" id="Layer_1" xmlns="http://www.w3.org/2000/svg" xmlns:xlink="http://www.w3.org/1999/xlink" 
	 viewBox="0 0 512 512" xml:space="preserve">
<circle style="fill:#C1321F;" cx="256" cy="256" r="256"/>
<path style="fill:#A82116;" d="M285.856,510.255c55.241-6.449,108.782-30.856,151.162-73.235
	c29.332-29.334,50.047-64.017,62.168-100.907l-221.45-221.451l-31.187,32.156l-12.286,11.316l20.073,20.075l-60.711,239.816
	L285.856,510.255z"/>
<rect x="245.605" y="137.344" style="fill:#BF7A00;" width="5" height="5"/>
<rect x="256.293" y="137.344" style="fill:#935635;" width="5" height="45"/>
<rect x="234.262" y="114.657" style="fill:#F9B54C;" width="5" height="5"/>
<rect x="256.293" y="114.657" style="fill:#F4A200;" width="5" height="5"/>
<circle style="fill:#BF7A00;" cx="246.553" cy="132.618" r="7.561"/>
<path style="fill:#F9B54C;" d="M318.374,418.025H193.627l-22.473-179.774c-4.627-37.021,24.24-69.72,61.549-69.72h46.594
	c37.309,0,66.176,32.699,61.549,69.72L318.374,418.025z"/>
<path style="fill:#F4A200;" d="M279.297,168.531h-23.009v249.494h62.086l22.471-179.774
	C345.472,201.23,316.606,168.531,279.297,168.531z"/>
<path style="fill:#FF6472;" d="M216.307,240.781c0-10.961,8.885-19.844,19.846-19.844c10.961,0,19.846,8.885,19.846,19.844
	c0-10.961,8.885-19.844,19.846-19.844c10.961,0,19.846,8.885,19.846,19.844c0,18.977-39.693,41.674-39.693,41.674
	S216.307,260.825,216.307,240.781z"/>
<path style="fill:#C75163;" d="M295.693,240.781c0-10.961-8.885-19.844-19.846-19.844c-9.854,0-18.006,7.187-19.558,16.601v44.751
	C259.718,280.285,295.693,258.853,295.693,240.781z"/>
</svg>