<?xml version="1.0" encoding="iso-8859-1"?>
<!-- Uploaded to: SVG Repo, www.svgrepo.com, Generator: SVG Repo Mixer Tools -->
<svg version="1.1" id="Layer_1" xmlns="http://www.w3.org/2000/svg" xmlns:xlink="http://www.w3.org/1999/xlink" 
	 viewBox="0 0 512 512" xml:space="preserve">
<circle style="fill:#FF6472;" cx="256" cy="256" r="256"/>
<path style="fill:#C75163;" d="M282.067,510.688c97.73-9.883,179.209-74.745,213.07-163.173L287.461,139.838l-35.592,47.097
	l-27.331,15.825l33.558,33.558l-90.421,159.978L282.067,510.688z"/>
<rect x="238.83" y="195.129" style="fill:#F9B54C;" width="34.321" height="34.321"/>
<rect x="256" y="195.129" style="fill:#F4A200;" width="17.16" height="34.321"/>
<path style="fill:#E6F3FF;" d="M381.845,306.679c0-36.074-15.201-68.577-39.521-91.524H169.675
	c-24.319,22.945-39.521,55.449-39.521,91.524c0,35.08,14.367,66.794,37.521,89.617h176.649
	C367.478,373.474,381.845,341.759,381.845,306.679z"/>
<path style="fill:#CFDBE6;" d="M381.845,306.678c0-36.073-15.201-68.577-39.521-91.524H256v181.141h88.323
	C367.478,373.474,381.845,341.759,381.845,306.678z"/>
<rect x="224.539" y="139.843" style="fill:#FFD15D;" width="62.923" height="62.923"/>
<g>
	<rect x="256" y="139.843" style="fill:#F9B54C;" width="31.461" height="62.923"/>
	<circle style="fill:#F9B54C;" cx="240.261" cy="165.098" r="9.533"/>
</g>
<path style="fill:#F4E3C3;" d="M130.155,306.679c0,35.08,14.367,66.794,37.521,89.617h176.649
	c23.156-22.823,37.521-54.537,37.521-89.617c0-10.869-1.403-21.404-3.998-31.461H134.151
	C131.558,285.275,130.155,295.81,130.155,306.679z"/>
<path style="fill:#FED8B2;" d="M381.845,306.678c0-10.869-1.403-21.404-3.998-31.461H256v121.079h88.323
	C367.478,373.474,381.845,341.759,381.845,306.678z"/>
<circle style="fill:#FC6F58;" cx="318.923" cy="286.255" r="14.853"/>
<path style="fill:#F1543F;" d="M318.923,271.405c-0.291,0-0.574,0.028-0.862,0.043v29.618c0.286,0.017,0.571,0.043,0.862,0.043
	c8.202,0,14.853-6.649,14.853-14.853S327.125,271.405,318.923,271.405z"/>
<circle style="fill:#FC6F58;" cx="318.923" cy="327.094" r="14.853"/>
<g>
	<path style="fill:#F1543F;" d="M318.923,312.248c-0.291,0-0.574,0.028-0.862,0.043v29.618c0.286,0.017,0.571,0.043,0.862,0.043
		c8.202,0,14.853-6.649,14.853-14.853S327.125,312.248,318.923,312.248z"/>
	<circle style="fill:#F1543F;" cx="339.351" cy="306.683" r="14.853"/>
</g>
<circle style="fill:#FC6F58;" cx="298.494" cy="306.683" r="14.853"/>
<circle style="fill:#F9B54C;" cx="318.923" cy="306.683" r="14.853"/>
<path style="fill:#F4A200;" d="M318.923,291.826c-0.291,0-0.574,0.028-0.862,0.043v29.618c0.286,0.016,0.571,0.043,0.862,0.043
	c8.202,0,14.853-6.649,14.853-14.853C333.774,298.477,327.125,291.826,318.923,291.826z"/>
</svg>