<?xml version="1.0" encoding="iso-8859-1"?>
<!-- Uploaded to: SVG Repo, www.svgrepo.com, Generator: SVG Repo Mixer Tools -->
<svg version="1.1" id="Layer_1" xmlns="http://www.w3.org/2000/svg" xmlns:xlink="http://www.w3.org/1999/xlink" 
	 viewBox="0 0 504 504" xml:space="preserve">
<circle style="fill:#84DBFF;" cx="252" cy="252" r="252"/>
<polygon style="fill:#324A5E;" points="279.6,126.4 224.4,126.4 214.4,146 214.4,208 232,208 272,208 289.6,208 289.6,146 "/>
<path style="fill:#E6E9EE;" d="M210,409.6h83.6c5.2,0,10-2,13.2-6c15.2-16,34-36.4,58.4-62.4c55.2-59.2,40-152.8-24-177.6
	c-26.8-10.4-63.2-2.8-89.6,30.4c-26.4-33.2-62.8-40.8-89.6-30.4C98,188.4,82.4,282,138,341.2c24.4,26,43.6,46.4,58.4,62.4
	C200.4,407.6,205.2,409.6,210,409.6z"/>
<path style="fill:#FF7058;" d="M297.2,275.6c-56.8,32-105.6-12-158.4-8c-3.2,0.4-6,1.2-8.8,2c2.8,20,12,39.6,26.4,55.2l56.8,60.8
	h78.4l56.4-60.8c12-12.8,20-28,24.4-44.4C346,268.8,320.4,262,297.2,275.6z"/>
<rect x="208" y="94.4" style="fill:#2B3B4E;" width="14.8" height="31.6"/>
<rect x="222.4" y="94.4" style="fill:#324A5E;" width="14.8" height="31.6"/>
<rect x="237.2" y="94.4" style="fill:#2B3B4E;" width="14.8" height="31.6"/>
<rect x="252" y="94.4" style="fill:#324A5E;" width="14.8" height="31.6"/>
<rect x="266.8" y="94.4" style="fill:#2B3B4E;" width="14.8" height="31.6"/>
<rect x="281.6" y="94.4" style="fill:#324A5E;" width="14.8" height="31.6"/>
</svg>