<?xml version="1.0" encoding="iso-8859-1"?>

<!DOCTYPE svg PUBLIC "-//W3C//DTD SVG 1.1//EN" "http://www.w3.org/Graphics/SVG/1.1/DTD/svg11.dtd">
<!-- Uploaded to: SVG Repo, www.svgrepo.com, Generator: SVG Repo Mixer Tools -->
<svg height="45px" width="45px" version="1.1" id="_x36_" xmlns="http://www.w3.org/2000/svg" xmlns:xlink="http://www.w3.org/1999/xlink" 
	 viewBox="0 0 512 512"  xml:space="preserve">
<g>
	<path style="fill:#EB713B;" d="M249.14,147.801v347.709C225.549,506.083,199.433,512,171.897,512
		c-10.888,0-21.382-1.579-31.48-4.577C92.92,493.458,54.181,449.195,29.563,396.57c-5.444-11.519-10.178-23.433-14.123-35.583
		C4.079,326.744-1.365,291.082,0.292,259.364C5.894,150.483,47.158,90.757,163.771,116.635
		c27.694,6.154,50.495,16.017,71.009,25.012C239.672,143.777,244.485,145.828,249.14,147.801z"/>
	<path style="fill:#A74734;" d="M249.14,147.838v347.656c23.588,10.613,49.732,16.502,77.25,16.502
		c104.605,0,177.012-147.644,171.607-252.618c-5.604-108.858-46.89-168.649-163.483-142.74
		C300.264,124.249,273.478,137.565,249.14,147.838z"/>
	<g>
		<path style="fill:#4C3138;" d="M171.722,18.069l4.368-16.417c0.232-0.878,1.284-1.429,2.825-1.598
			c1.535-0.153,3.584-0.006,5.658,0.761c0,0,0.609,0.237,1.751,0.682c0.569,0.225,1.271,0.503,2.096,0.828
			c0.81,0.363,1.742,0.78,2.786,1.247c4.17,1.848,10.02,4.792,16.505,9.123c6.503,4.289,13.592,10.034,20.172,17.11
			c6.646,7.01,12.641,15.43,17.479,24.402c4.741,9.031,8.325,18.608,10.386,27.859c2.151,9.232,2.925,18.058,2.852,25.572
			c-0.03,7.521-0.823,13.732-1.584,18.017c-0.185,1.072-0.352,2.029-0.496,2.862c-0.181,0.824-0.336,1.527-0.461,2.096
			c-0.256,1.136-0.392,1.741-0.392,1.741c-0.344,2.072-1.213,3.826-2.091,5.011c-0.895,1.184-1.884,1.78-2.761,1.546l-4.952-1.318
			c-0.877-0.235-1.491-1.206-1.781-2.554c-0.306-1.355-0.202-3.072,0.099-4.924c0,0,0.079-0.55,0.227-1.581
			c0.072-0.515,0.161-1.15,0.265-1.897c0.07-0.751,0.148-1.614,0.237-2.581c0.379-3.855,0.64-9.402,0.142-15.988
			c-0.455-6.581-1.745-14.196-4.228-21.988c-2.397-7.816-6.126-15.732-10.717-23.029c-4.695-7.24-10.246-13.859-16.196-19.199
			c-5.891-5.405-12.042-9.62-17.582-12.667c-5.525-3.084-10.402-5.069-13.863-6.276c-0.862-0.309-1.632-0.584-2.301-0.823
			c-0.682-0.206-1.262-0.382-1.732-0.524c-0.939-0.282-1.44-0.432-1.44-0.432c-1.652-0.623-3.098-1.356-4.052-2.276
			C171.983,19.951,171.49,18.947,171.722,18.069z"/>
	</g>
	<path style="fill:#4B8851;" d="M412.54,10.28c-0.079,4.497-0.552,8.837-1.341,12.86c-14.203,77.873-136.417,79.137-136.417,79.137
		c-0.079-0.079-0.079-0.316,0.079-0.711c1.184-8.442,23.512-86.316,94.442-94.442c8.048-0.947,16.727-0.947,26.037,0.158
		C400.863,7.834,406.544,8.859,412.54,10.28z"/>
</g>
</svg>